<svg width="26" height="26" viewBox="0 0 26 26" fill="none" xmlns="http://www.w3.org/2000/svg">
<path d="M12.9997 14.0003C14.3182 14.0003 15.6071 13.6093 16.7035 12.8768C17.7998 12.1442 18.6543 11.1031 19.1589 9.88488C19.6635 8.66671 19.7955 7.32627 19.5382 6.03306C19.281 4.73985 18.6461 3.55197 17.7137 2.61962C16.7814 1.68727 15.5935 1.05233 14.3003 0.795093C13.0071 0.537859 11.6666 0.669881 10.4485 1.17447C9.23028 1.67905 8.18909 2.53353 7.45654 3.62986C6.724 4.72619 6.33301 6.01512 6.33301 7.33366C6.33512 9.10112 7.03818 10.7956 8.28797 12.0454C9.53775 13.2952 11.2322 13.9982 12.9997 14.0003ZM12.9997 3.33366C13.7908 3.33366 14.5642 3.56826 15.222 4.00778C15.8798 4.44731 16.3924 5.07202 16.6952 5.80293C16.9979 6.53383 17.0772 7.3381 16.9228 8.11402C16.7685 8.88995 16.3875 9.60268 15.8281 10.1621C15.2687 10.7215 14.556 11.1025 13.78 11.2568C13.0041 11.4111 12.1998 11.3319 11.4689 11.0292C10.738 10.7264 10.1133 10.2137 9.6738 9.55594C9.23427 8.89815 8.99967 8.12479 8.99967 7.33366C8.99967 6.2728 9.4211 5.25538 10.1712 4.50523C10.9214 3.75509 11.9388 3.33366 12.9997 3.33366Z" fill="black"/>
<path d="M24.9815 24.4465C24.4008 21.7474 22.8738 19.3451 20.6764 17.6737C18.479 16.0023 15.7562 15.1721 13.0001 15.3332C10.244 15.1721 7.5212 16.0023 5.32381 17.6737C3.12642 19.3451 1.59942 21.7474 1.01879 24.4465L0.758789 25.9998H25.2415L24.9815 24.4465ZM4.13079 23.3332C4.99079 21.2998 7.26679 17.9998 13.0001 17.9998C18.6815 17.9998 20.9775 21.2972 21.8548 23.3332H4.13079Z" fill="black"/>
</svg>
