<svg width="24" height="28" viewBox="0 0 24 28" fill="none" xmlns="http://www.w3.org/2000/svg">
<path d="M24 20.667H22.3747L21.3333 16.503V11.3337C21.3307 9.0912 20.5208 6.92464 19.0518 5.23036C17.5827 3.53608 15.5528 2.42734 13.3333 2.10699V0.666992H10.6667V2.10699C8.4472 2.42734 6.41727 3.53608 4.94824 5.23036C3.47921 6.92464 2.66929 9.0912 2.66667 11.3337V16.503L1.62533 20.667H0V23.3337H6.856C7.14703 24.4771 7.81074 25.491 8.74229 26.2151C9.67383 26.9393 10.8201 27.3324 12 27.3324C13.1799 27.3324 14.3262 26.9393 15.2577 26.2151C16.1893 25.491 16.853 24.4771 17.144 23.3337H24V20.667ZM5.29333 16.991L5.33333 11.3337C5.33333 9.56555 6.03571 7.86986 7.28595 6.61961C8.5362 5.36937 10.2319 4.66699 12 4.66699C13.7681 4.66699 15.4638 5.36937 16.714 6.61961C17.9643 7.86986 18.6667 9.56555 18.6667 11.3337V16.667L19.6373 20.667H4.37467L5.29333 16.991ZM12 24.667C11.534 24.6656 11.0765 24.5417 10.6735 24.3076C10.2706 24.0736 9.93619 23.7377 9.704 23.3337H14.296C14.0638 23.7377 13.7294 24.0736 13.3265 24.3076C12.9235 24.5417 12.466 24.6656 12 24.667Z" fill="black"/>
</svg>
