<svg width="28" height="26" viewBox="0 0 28 26" fill="none" xmlns="http://www.w3.org/2000/svg">
<path d="M13.9996 25.7609L2.68631 14.4476C1.18589 12.9473 0.342898 10.9125 0.342773 8.79072C0.342648 6.66893 1.1854 4.634 2.68565 3.13358C4.18589 1.63316 6.22072 0.790164 8.34251 0.790039C10.4643 0.789914 12.4992 1.63267 13.9996 3.13291C15.5008 1.63437 17.5352 0.792711 19.6563 0.792711C21.7774 0.792711 23.8118 1.63437 25.313 3.13291C26.8109 4.6344 27.6521 6.66869 27.6521 8.78958C27.6521 10.9105 26.8109 12.9448 25.313 14.4462L13.9996 25.7609ZM8.34231 3.45691C7.28737 3.45687 6.25611 3.76969 5.37897 4.35581C4.50184 4.94192 3.81822 5.775 3.41459 6.74968C3.01096 7.72435 2.90546 8.79683 3.11141 9.83147C3.31737 10.8661 3.82554 11.8164 4.57165 12.5622L13.9996 21.9902L23.4276 12.5622C23.9692 12.0328 24.3917 11.3941 24.6672 10.6886C24.9426 9.98314 25.0647 9.22709 25.0252 8.47078C24.9857 7.71447 24.7856 6.97524 24.4382 6.30228C24.0908 5.62932 23.6041 5.03807 23.0104 4.56786C22.4167 4.09766 21.7297 3.75929 20.995 3.57527C20.2604 3.39126 19.495 3.36581 18.7497 3.50063C18.0045 3.63544 17.2965 3.92743 16.6729 4.35716C16.0493 4.7869 15.5243 5.34451 15.133 5.99291L13.9996 7.82224L12.8663 5.99291C12.3985 5.21296 11.7349 4.56885 10.9413 4.12447C10.1477 3.6801 9.25178 3.45089 8.34231 3.45958V3.45691Z" fill="black"/>
</svg>
