<svg width="20" height="17" viewBox="0 0 20 17" fill="none" xmlns="http://www.w3.org/2000/svg">
<path d="M16.5 3H13V0H0V15H2.184C2.38765 15.5845 2.76815 16.0912 3.27275 16.4498C3.77734 16.8083 4.381 17.0009 5 17.0009C5.619 17.0009 6.22266 16.8083 6.72725 16.4498C7.23185 16.0912 7.61235 15.5845 7.816 15H13.184C13.4188 15.6667 13.882 16.2287 14.4915 16.5866C15.1011 16.9445 15.8176 17.0752 16.5142 16.9554C17.2108 16.8356 17.8425 16.4732 18.2975 15.9322C18.7525 15.3913 19.0013 14.7068 19 14H20V7.667L16.5 3ZM2 2H11V9H13V5H15.5L18 8.333V11.78C17.6367 11.4472 17.1963 11.21 16.7185 11.0897C16.2407 10.9693 15.7405 10.9697 15.2629 11.0907C14.7852 11.2117 14.3452 11.4495 13.9823 11.7828C13.6194 12.1161 13.3451 12.5344 13.184 13H7.816C7.61235 12.4155 7.23185 11.9088 6.72725 11.5502C6.22266 11.1917 5.619 10.9991 5 10.9991C4.381 10.9991 3.77734 11.1917 3.27275 11.5502C2.76815 11.9088 2.38765 12.4155 2.184 13H2V2ZM5 15C4.80222 15 4.60888 14.9414 4.44443 14.8315C4.27998 14.7216 4.15181 14.5654 4.07612 14.3827C4.00043 14.2 3.98063 13.9989 4.01921 13.8049C4.0578 13.6109 4.15304 13.4327 4.29289 13.2929C4.43275 13.153 4.61093 13.0578 4.80491 13.0192C4.99889 12.9806 5.19996 13.0004 5.38268 13.0761C5.56541 13.1518 5.72159 13.28 5.83147 13.4444C5.94135 13.6089 6 13.8022 6 14C6 14.2652 5.89464 14.5196 5.70711 14.7071C5.51957 14.8946 5.26522 15 5 15ZM16 15C15.8022 15 15.6089 14.9414 15.4444 14.8315C15.28 14.7216 15.1518 14.5654 15.0761 14.3827C15.0004 14.2 14.9806 13.9989 15.0192 13.8049C15.0578 13.6109 15.153 13.4327 15.2929 13.2929C15.4327 13.153 15.6109 13.0578 15.8049 13.0192C15.9989 12.9806 16.2 13.0004 16.3827 13.0761C16.5654 13.1518 16.7216 13.28 16.8315 13.4444C16.9414 13.6089 17 13.8022 17 14C17 14.2652 16.8946 14.5196 16.7071 14.7071C16.5196 14.8946 16.2652 15 16 15Z" fill="#11142D"/>
</svg>
